# xmcd
#
# Track frame offsets:
#	150
#	16002
#	33597
#	61202
#
# Disc length: 1169 seconds
#
# Revision: 2
# Processed by: cddbd v1.4PL0 Copyright (c) Steve Scherf et al.
# Submitted via: audiograbber 1.81.01
#
DISCID=26048f04
DTITLE=Kiriman - Raising My Family
DYEAR=1996
DGENRE=Dance
TTITLE0=Raising My Family (Lac Terra Radio Version)
TTITLE1=Raising My Family (Bingoboys Radio Version)
TTITLE2=Raising My Family (Lac Terra Extended Version)
TTITLE3=Raising My Family (Bingobooys Cub Dub)
EXTD=
EXTT0=
EXTT1=
EXTT2=
EXTT3=
PLAYORDER=
